# xmcd
#
# Track frame offsets: 
#        150
#        20460
#        48064
#        73605
#        101208
#        123160
#        152909
#        196447
#        224831
#        241712
#        264320
#
# Disc length: 3783 seconds
#
# Revision: 1
# Processed by: cddbd v1.5.2PL0 Copyright (c) Steve Scherf et al.
# Submitted via: ExactAudioCopy v1.1
#
DISCID=980ec50b
DTITLE=Gene Mighty Flea Conners - I Need Some Money
DYEAR=1997
DGENRE=Blues
TTITLE0=Hey Bop-A Rebop
TTITLE1=Stagger Lee
TTITLE2=I need some money
TTITLE3=Just a Gigolo
TTITLE4=Boney Moroney
TTITLE5=What a wonderful world
TTITLE6=Hit the road jack
TTITLE7=Hand Jive
TTITLE8=Let the good times roll
TTITLE9=Cleanhead Blues
TTITLE10=Buona Sera
EXTD=YEAR: 1997
EXTT0=
EXTT1=
EXTT2=
EXTT3=
EXTT4=
EXTT5=
EXTT6=
EXTT7=
EXTT8=
EXTT9=
EXTT10=
PLAYORDER=
